<?xml version="1.0" standalone="no"?>
<!DOCTYPE svg PUBLIC "-//W3C//DTD SVG 20010904//EN"
 "http://www.w3.org/TR/2001/REC-SVG-20010904/DTD/svg10.dtd">
<svg version="1.0" xmlns="http://www.w3.org/2000/svg"
 width="2574.000000pt" height="2660.000000pt" viewBox="0 0 2574.000000 2660.000000"
 preserveAspectRatio="xMidYMid meet">

<g transform="translate(0.000000,2660.000000) scale(0.100000,-0.100000)"
fill="#000000" stroke="none">
<path d="M12405 21854 c-22 -2 -110 -8 -195 -14 -1544 -107 -3093 -669 -4380
-1590 -419 -299 -709 -547 -1100 -939 -350 -350 -564 -597 -834 -961 -1468
-1976 -2012 -4456 -1515 -6900 337 -1654 1157 -3177 2359 -4380 852 -852 1881
-1521 2998 -1949 740 -284 1498 -461 2292 -535 315 -30 576 -39 993 -33 413 5
519 11 852 48 1896 206 3691 1070 5077 2441 1308 1294 2176 2973 2468 4773 72
440 100 767 107 1250 12 797 -67 1495 -252 2237 -690 2752 -2685 4997 -5333
6002 -760 288 -1523 459 -2407 537 -121 10 -1040 21 -1130 13z m4233 -2289
c352 -37 431 -93 357 -253 -31 -67 -10 -39 -496 -647 -465 -582 -491 -616
-623 -817 -256 -391 -488 -861 -694 -1408 -119 -316 -196 -541 -408 -1204
-113 -353 -306 -947 -429 -1321 -123 -374 -238 -725 -255 -780 -18 -55 -34
-104 -37 -108 -3 -4 -43 61 -90 145 -259 467 -574 937 -886 1321 -189 234
-355 416 -611 673 -326 325 -586 554 -821 723 -142 102 -170 159 -126 257 29
64 201 339 355 569 503 750 1049 1345 1651 1798 676 510 1450 858 2275 1022
228 46 569 58 838 30z m1645 -681 c60 -31 101 -69 210 -194 255 -291 424 -545
591 -890 304 -627 442 -1355 423 -2225 -7 -312 -18 -460 -53 -745 -129 -1041
-497 -2054 -1102 -3040 -750 -1221 -1586 -2055 -2624 -2617 -272 -147 -679
-321 -799 -342 -82 -14 -78 -14 -73 6 13 58 36 325 43 506 18 414 -19 909
-104 1403 -51 294 -29 387 164 687 86 134 161 278 277 534 297 656 540 1339
810 2276 276 963 536 1674 914 2502 102 224 418 846 532 1050 172 305 489 848
544 930 68 101 82 118 129 149 44 30 73 32 118 10z m-9518 -2224 c386 -36 772
-131 1117 -276 155 -65 470 -222 676 -336 392 -217 796 -487 1127 -753 1595
-1284 2524 -3122 2794 -5525 17 -152 18 -201 11 -375 -42 -908 -294 -1674
-762 -2317 -40 -55 -92 -127 -115 -161 -61 -90 -84 -107 -144 -107 -42 0 -55
5 -79 28 -30 30 -36 50 -64 197 -24 126 -106 432 -183 679 -384 1244 -1008
2374 -1937 3511 -266 325 -466 549 -871 975 -305 321 -366 386 -539 580 -907
1017 -1696 2128 -2310 3251 -129 236 -155 298 -156 363 0 44 4 53 38 85 23 22
63 45 102 59 125 43 446 102 660 121 138 12 507 13 635 1z m-2443 -1000 c49
-33 72 -74 117 -202 49 -141 324 -846 433 -1108 318 -768 754 -1424 1529
-2302 89 -101 331 -367 539 -593 478 -520 633 -692 850 -940 851 -972 1419
-1773 1851 -2610 126 -244 245 -504 521 -1133 210 -479 222 -511 226 -578 4
-71 4 -72 -33 -112 -55 -62 -104 -76 -474 -142 -304 -54 -432 -64 -626 -50
-1138 81 -2103 479 -3017 1244 -333 279 -751 682 -1017 981 -1321 1486 -1967
3210 -1928 5150 10 494 60 812 187 1195 118 356 224 569 489 975 18 28 56 86
85 130 63 99 106 128 183 122 33 -2 64 -12 85 -27z"/>
</g>
</svg>
